<?xml version="1.0" encoding="iso-8859-1"?>
<!-- Uploaded to: SVG Repo, www.svgrepo.com, Generator: SVG Repo Mixer Tools -->
<!DOCTYPE svg PUBLIC "-//W3C//DTD SVG 1.1//EN" "http://www.w3.org/Graphics/SVG/1.1/DTD/svg11.dtd">
<svg fill="#1f1f1f" height="800px" width="800px" version="1.1" id="Capa_1" xmlns="http://www.w3.org/2000/svg" xmlns:xlink="http://www.w3.org/1999/xlink"
	 viewBox="0 0 297 297" xml:space="preserve">
<path d="M287.116,252.811h-64.3l-67.36-115.146l101.812-59.561c2.262-1.324,3.906-3.492,4.57-6.028
	c0.664-2.537,0.293-5.232-1.03-7.495C225.047,3.454,150.85-15.858,85.111,17.42l-5.066-8.661c-2.757-4.711-8.81-6.297-13.521-3.541
	c-4.712,2.757-6.297,8.81-3.541,13.521l5.067,8.662C6.824,68.394-12.702,142.537,23.058,203.667
	c1.839,3.143,5.144,4.894,8.541,4.894c1.695,0,3.412-0.437,4.981-1.354l101.812-59.561l61.521,105.164H9.884
	c-5.458,0-9.884,4.425-9.884,9.884c0,5.458,4.425,9.884,9.884,9.884h201.594l10.682,18.26c1.839,3.143,5.144,4.894,8.541,4.894
	c1.695,0,3.412-0.437,4.981-1.354c4.711-2.757,6.296-8.81,3.54-13.522l-4.843-8.278h52.736c5.458,0,9.884-4.425,9.884-9.884
	C297,257.236,292.575,252.811,287.116,252.811z M86.408,39.208c1.816-1.063,4.058-1.605,6.668-1.605
	c16.254,0,46.722,21.06,76.592,68.846l-65.449,38.288C72.864,87.343,73.282,46.886,86.408,39.208z M238.387,66.248l-51.653,30.218
	c-21.582-34.658-45.488-59.444-67.255-71.149c10.38-2.772,20.794-4.146,31.008-4.146C185.208,21.169,217.599,36.891,238.387,66.248z
	 M35.494,184.942c-11.6-24.417-13.685-51.347-5.774-76.817c5.405-17.403,15.157-33.39,28.371-46.907
	c-0.467,24.712,9.423,57.702,29.06,93.504L35.494,184.942z"/>
</svg>